# xmcd
#
# Track frame offsets:
#	150
#	17221
#	35393
#	52692
#	64330
#	88199
#	105730
#	122774
#	140952
#	158217
#	169908
#	193813
#
# Disc length: 2818 seconds
#
# Revision: 0
# Processed by: cddbd v1.5.2PL0 Copyright (c) Steve Scherf et al.
# Submitted via: audiograbber 1.83.01
#
DISCID=ab0b000c
DTITLE=Various Artist - CB20085 Hot Hits Vol. 85
DYEAR=1900
DGENRE=Country
TTITLE0=Lo Dee Messina - Lessons In Leavin' (Vocal)
TTITLE1=Chalee Tennison - Someone Else's Turn To Cry (Vocal)
TTITLE2=Dixie Chicks, The - Loving Arms (Vocal)
TTITLE3=Julie Reeves - Trouble Is A Woman (Vocal)
TTITLE4=Claudia Church - Home In My Heart (North Carolina) (Vocal)
TTITLE5=Faith Hill - You Give Me Love (Vocal)
TTITLE6=Jo Dee Messina - Lessons In Leavin'
TTITLE7=Chalee Tennison - Someone Else's Turn To Cry
TTITLE8=Dixie Chicks, The - Loving Arms
TTITLE9=Julie Reeves - Trouble Is A Woman
TTITLE10=Claudia Church - Home In My Heart (North Carolina)
TTITLE11=Faith Hill - You Give Me Love
EXTD=
EXTT0=
EXTT1=
EXTT2=
EXTT3=
EXTT4=
EXTT5=
EXTT6=
EXTT7=
EXTT8=
EXTT9=
EXTT10=
EXTT11=
PLAYORDER=
